HIERARCHY
ROOT hip
{
	OFFSET 0.000000 0.000000 0.000000 
	CHANNELS 6 Xposition Yposition Zposition Xrotation Zrotation Yrotation
	JOINT abdomen
	{
		OFFSET 0.000000 3.402643 0.000000 
		CHANNELS 3 Xrotation Zrotation Yrotation
		JOINT chest
		{
			OFFSET 0.000000 8.438565 -0.680529 
			CHANNELS 3 Xrotation Zrotation Yrotation
			JOINT neck
			{
				OFFSET 0.000000 10.207942 -0.272212 
				CHANNELS 3 Xrotation Zrotation Yrotation
				JOINT head
				{
					OFFSET 0.000000 3.130431 0.000000 
					CHANNELS 3 Xrotation Zrotation Yrotation
					End Site
					{
						OFFSET 0.000000 3.130435 0.000000 
					}
				}
			}
			JOINT lCollar
			{
				OFFSET 3.470700 6.669187 -0.816635 
				CHANNELS 3 Yrotation Zrotation Xrotation
				JOINT lShldr
				{
					OFFSET 3.198488 0.000000 0.000000 
					CHANNELS 3 Zrotation Yrotation Xrotation
					JOINT lForeArm
					{
						OFFSET 10.139888 0.000000 0.000000 
						CHANNELS 3 Yrotation Zrotation Xrotation
						JOINT lHand
						{
							OFFSET 8.370511 0.000000 0.000000 
							CHANNELS 3 Zrotation Yrotation Xrotation
							End Site
							{
								OFFSET 4.083176 0.000000 0.000000 
							}
						}
					}
				}
			}
			JOINT rCollar
			{
				OFFSET -3.470700 6.669187 -0.816635 
				CHANNELS 3 Yrotation Zrotation Xrotation
				JOINT rShldr
				{
					OFFSET -3.198488 0.000000 0.000000 
					CHANNELS 3 Zrotation Yrotation Xrotation
					JOINT rForeArm
					{
						OFFSET -10.139888 0.000000 0.000000 
						CHANNELS 3 Yrotation Zrotation Xrotation
						JOINT rHand
						{
							OFFSET -8.370511 0.000000 0.000000 
							CHANNELS 3 Zrotation Yrotation Xrotation
							End Site
							{
								OFFSET -4.083176 0.000000 0.000000 
							}
						}
					}
				}
			}
		}
	}
	JOINT lThigh
	{
		OFFSET 5.308129 -1.633274 1.361059 
		CHANNELS 3 Xrotation Zrotation Yrotation
		JOINT lShin
		{
			OFFSET -2.041588 -20.007561 0.000000 
			CHANNELS 3 Xrotation Zrotation Yrotation
			JOINT lFoot
			{
				OFFSET 0.000000 -19.190928 -1.224953 
				CHANNELS 3 Xrotation Yrotation Zrotation
				End Site
				{
					OFFSET 0.000000 -2.449906 4.627600 
				}
			}
		}
	}
	JOINT rThigh
	{
		OFFSET -5.308129 -1.633274 1.361059 
		CHANNELS 3 Xrotation Zrotation Yrotation
		JOINT rShin
		{
			OFFSET 2.041588 -20.007561 0.000000 
			CHANNELS 3 Xrotation Zrotation Yrotation
			JOINT rFoot
			{
				OFFSET 0.000000 -19.190928 -1.224953 
				CHANNELS 3 Xrotation Yrotation Zrotation
				End Site
				{
					OFFSET 0.000000 -2.449906 4.627600 
				}
			}
		}
	}
}
MOTION
Frames: 11
Frame Time: 0.033333
-54.509632 52.141605 66.495872 3.681641 0.869141 -29.999998 22.611937 -14.921512 -4.441980 -13.007813 12.412110 8.154297 51.553619 8.070152 2.616707 -36.943363 5.986328 -18.662111 2.000000 -2.000000 0.000000 -69.667969 22.500000 -11.416014 -128.103928 1.678453 -2.470944 -62.883263 4.927345 -13.099688 -2.000000 2.000000 0.000000 93.388672 -14.648437 -6.464844 51.854412 1.498803 -1.933524 7.130441 -54.838665 1.217763 3.818766 1.139927 -3.067429 9.379317 -5.995271 -1.324039 -10.634536 11.291001 2.176223 -11.021852 -3.327112 -22.810953 3.844714 5.690403 0.419497 1.445275 -12.732786 -4.756871 
-55.147583 52.073803 67.175720 3.867188 1.386719 -29.257572 22.405331 -15.017187 -4.271919 -12.646483 12.382813 8.244282 51.553619 8.070152 2.616707 -37.470703 6.054687 -18.720709 2.000000 -2.000000 0.000000 -69.667969 22.500000 -11.416014 -128.103928 1.678453 -2.470944 -62.883263 4.927345 -13.099688 -2.000000 2.000000 0.000000 93.339844 -14.326172 -6.826171 51.854412 1.498803 -1.933524 7.843688 -53.663609 0.992520 5.099592 1.238398 -4.132971 8.660072 -6.241207 -1.233705 -10.861476 10.881465 2.443867 -10.895963 -1.990512 -23.419960 -0.360423 5.712933 0.002516 2.958004 -12.210812 -5.702767 
-55.794216 51.975872 67.860306 4.042969 1.748047 -28.700874 22.387617 -14.847738 -4.192594 -12.304688 12.187500 8.449327 51.553619 8.070152 2.616707 -37.998051 6.103515 -18.603516 2.000000 -2.000000 0.000000 -69.667969 22.500000 -11.416014 -128.103928 1.678453 -2.470944 -62.841217 4.983781 -12.933832 -2.000000 2.000000 0.000000 93.251953 -14.287109 -6.806641 52.016777 1.637635 -1.798302 8.304225 -52.945492 0.604347 6.240499 1.493634 -4.806610 7.256724 -6.240067 -1.104519 -10.656713 10.981334 1.647918 -10.913390 -1.159299 -24.527796 -4.063134 5.730990 -0.871431 6.530167 -11.805216 -5.663571 
-56.440617 51.885471 68.529266 4.218750 2.089844 -27.968393 22.190449 -14.943438 -4.022522 -12.128905 12.187500 8.478624 51.553619 8.070152 2.616707 -38.525391 6.142577 -18.486328 2.000000 -2.000000 0.000000 -69.667969 22.500000 -11.416014 -128.103928 1.678453 -2.470944 -62.841961 4.788229 -12.984591 -2.000000 2.000000 0.000000 93.017578 -14.326173 -6.838354 52.030193 1.498803 -1.933524 8.417068 -53.395950 0.876513 7.732106 1.512524 -5.714715 5.834914 -6.284015 -0.935104 -10.699294 10.631701 1.121374 -10.745095 -0.522394 -26.672274 -5.279158 5.718344 -0.333117 9.058991 -11.197319 -6.195635 
-57.077976 51.749863 69.215126 4.384766 2.451172 -27.412111 22.174690 -14.792178 -3.950084 -11.933594 12.333985 8.564453 51.553619 8.070152 2.616707 -39.248051 6.064453 -18.242189 2.000000 -2.000000 0.000000 -69.580078 22.460938 -11.152343 -128.103928 1.678453 -2.470944 -62.769890 4.676816 -12.869437 -2.000000 2.000000 0.000000 92.685547 -14.492187 -7.080078 52.205975 1.498803 -1.933524 8.689813 -53.877434 0.449583 9.008943 1.961303 -6.383153 4.253932 -6.273348 -0.788147 -10.357547 10.592880 0.786351 -10.495260 -0.076319 -27.202431 -5.278888 5.718072 -0.342867 10.123107 -11.712071 -6.228667 
-57.684917 51.606735 69.854805 4.560547 2.617188 -26.865234 21.971712 -14.622699 -3.870851 -11.933594 12.333985 8.564453 51.553619 8.070152 2.616707 -39.794922 5.937500 -18.154297 2.000000 -2.000000 0.000000 -69.511719 22.412107 -10.943542 -128.103928 1.678453 -2.470944 -62.552757 4.723943 -12.718785 -2.000000 2.000000 0.000000 92.226563 -14.414064 -6.972656 52.205975 1.498803 -1.933524 8.390088 -54.294243 0.872710 10.223712 2.128599 -6.893808 2.829390 -6.301046 -0.617261 -10.265066 10.196259 0.637976 -12.274499 -1.347174 -28.519876 -2.136796 5.551976 -0.177031 8.921910 -11.065818 -6.192935 
-57.978497 51.674530 70.219086 4.902344 2.792969 -26.298826 21.962353 -14.218677 -3.886306 -11.923827 12.509766 8.459146 51.553619 8.070152 2.616707 -40.175785 5.625000 -17.890625 2.000000 -2.000000 0.000000 -69.531250 22.578125 -10.878907 -128.103928 1.678453 -2.470944 -62.508633 4.271743 -12.819815 -2.000000 2.000000 0.000000 91.728516 -13.935548 -6.701571 52.205975 1.498803 -1.933524 8.390088 -54.294243 0.872710 11.256902 2.576918 -7.584007 2.129076 -6.345421 -0.533526 -10.701585 10.143643 0.294726 -13.392652 -2.094662 -29.291704 1.725051 5.703695 0.224113 7.380012 -10.981497 -6.222361 
-58.298450 51.787544 70.628502 5.087891 2.968750 -25.927229 21.777403 -13.805457 -3.900926 -11.904297 12.675782 8.508002 51.553619 8.070152 2.616707 -40.371098 5.302734 -17.792969 2.000000 -2.000000 0.000000 -69.550781 22.539063 -10.953288 -128.103928 1.678453 -2.470944 -62.684464 4.085498 -12.835740 -2.000000 2.000000 0.000000 91.132813 -13.457031 -6.679688 51.831951 1.678340 -1.825264 8.287135 -53.843884 0.608613 12.368231 2.908744 -7.707229 1.405306 -6.304859 -0.455579 -10.891341 10.050192 0.082772 -14.129203 -2.762155 -29.751465 4.926518 5.686739 0.368178 5.977060 -10.726953 -6.136473 
-58.668636 51.915600 71.077362 5.263671 2.773437 -25.585939 21.593798 -13.395570 -3.904279 -12.070312 12.861329 8.517798 51.553619 8.070152 2.616707 -40.585941 4.970703 -17.880857 2.000000 -2.000000 0.000000 -69.580078 22.480469 -11.113281 -127.923759 1.676879 -2.666134 -62.508438 3.909893 -12.909664 -2.000000 2.000000 0.000000 90.742188 -13.154298 -6.376953 51.854412 1.498803 -1.933524 7.843688 -53.663609 0.992520 12.093222 3.298312 -8.182448 3.191288 -6.322895 -0.670508 -10.938043 10.645231 0.610884 -14.468803 -2.926246 -29.713482 7.375421 5.670003 0.124359 5.052361 -10.973238 -5.871807 
-59.092266 52.021072 71.579918 5.625000 2.431641 -25.243725 21.573931 -12.836411 -3.860001 -12.236328 13.037110 8.349609 51.553619 8.070152 2.616707 -40.605469 4.804688 -17.909336 2.000000 -2.000000 0.000000 -69.580078 22.480469 -11.113281 -127.748528 1.675748 -2.685625 -62.613914 3.944835 -12.692001 -2.000000 2.000000 0.000000 90.986328 -12.939453 -6.271716 51.831951 1.678340 -1.825264 7.457367 -54.011505 1.285420 11.311615 3.854580 -9.006302 5.472703 -6.294244 -0.921386 -10.346424 11.334836 0.954735 -14.077896 -2.466691 -30.656116 8.265785 5.620937 0.764737 4.751149 -11.075905 -6.012498 
-59.565907 52.156670 72.138725 6.152344 1.728516 -24.951172 21.401632 -12.169940 -3.961553 -12.412110 13.212892 8.359375 51.553619 8.070152 2.616707 -40.449219 4.794922 -18.251955 2.000000 -2.000000 0.000000 -69.580078 22.480469 -11.113281 -127.748528 1.675748 -2.685625 -62.892643 3.842313 -12.998050 -2.000000 2.000000 0.000000 91.669922 -12.685547 -6.271674 52.030193 1.498803 -1.933524 7.151912 -54.037979 1.612090 10.561378 4.567104 -9.301796 8.500663 -6.276391 -1.260209 -9.497884 11.839625 0.567628 -13.152981 -1.688563 -31.086121 8.265788 5.620934 0.764737 4.928112 -11.241490 -5.801516 
